<svg width="66" height="23" viewBox="0 0 66 23" fill="none" xmlns="http://www.w3.org/2000/svg">
<path d="M17.13 7.09C17.13 6.01 16.88 5.16 16.38 4.54C15.9 3.92 15.22 3.61 14.34 3.61C14.3 3.61 14.28 3.55 14.28 3.43C14.28 3.31 14.3 3.25 14.34 3.25L15.78 3.28C16.54 3.32 17.15 3.34 17.61 3.34C17.99 3.34 18.54 3.32 19.26 3.28L20.64 3.25C20.68 3.25 20.7 3.31 20.7 3.43C20.7 3.55 20.68 3.61 20.64 3.61C19.86 3.61 19.25 3.92 18.81 4.54C18.37 5.16 18.15 6.01 18.15 7.09V15.43C18.15 16.83 17.84 18.06 17.22 19.12C16.6 20.18 15.72 21 14.58 21.58C13.46 22.14 12.16 22.42 10.68 22.42C9.2 22.42 7.89 22.14 6.75 21.58C5.61 21.02 4.71 20.21 4.05 19.15C3.41 18.07 3.09 16.81 3.09 15.37V5.68C3.09 5.08 3.03 4.64 2.91 4.36C2.81 4.08 2.61 3.89 2.31 3.79C2.03 3.67 1.58 3.61 0.96 3.61C0.9 3.61 0.87 3.55 0.87 3.43C0.87 3.31 0.9 3.25 0.96 3.25L2.55 3.28C3.47 3.32 4.2 3.34 4.74 3.34C5.34 3.34 6.1 3.32 7.02 3.28L8.55 3.25C8.61 3.25 8.64 3.31 8.64 3.43C8.64 3.55 8.61 3.61 8.55 3.61C7.93 3.61 7.47 3.67 7.17 3.79C6.89 3.91 6.69 4.12 6.57 4.42C6.47 4.7 6.42 5.14 6.42 5.74V14.32C6.42 16.7 6.89 18.46 7.83 19.6C8.77 20.74 10.1 21.31 11.82 21.31C13.48 21.31 14.78 20.81 15.72 19.81C16.66 18.79 17.13 17.34 17.13 15.46V7.09ZM22.1438 22C22.1037 22 22.0837 21.94 22.0837 21.82C22.0837 21.7 22.1037 21.64 22.1438 21.64C22.7637 21.64 23.1838 21.5 23.4038 21.22C23.6438 20.92 23.7638 20.37 23.7638 19.57L23.7938 4.33C23.7938 3.63 23.7238 3.13 23.5838 2.83C23.4638 2.53 23.2438 2.38 22.9238 2.38C22.6638 2.38 22.2838 2.49 21.7838 2.71H21.7538C21.6938 2.71 21.6338 2.66 21.5738 2.56C21.5338 2.44 21.5338 2.37 21.5738 2.35L25.9838 0.279999L26.1038 0.249999C26.2038 0.249999 26.3138 0.299999 26.4338 0.399999C26.5538 0.479999 26.6138 0.559999 26.6138 0.64V19.57C26.6138 20.37 26.7238 20.92 26.9438 21.22C27.1638 21.5 27.5838 21.64 28.2038 21.64C28.2838 21.64 28.3238 21.7 28.3238 21.82C28.3238 21.94 28.2838 22 28.2038 22C27.7038 22 27.3038 21.99 27.0038 21.97L25.1738 21.94L23.3738 21.97C23.0738 21.99 22.6638 22 22.1438 22ZM30.2911 22C30.2311 22 30.2011 21.94 30.2011 21.82C30.2011 21.7 30.2311 21.64 30.2911 21.64C30.9111 21.64 31.3311 21.5 31.5511 21.22C31.7711 20.92 31.8811 20.37 31.8811 19.57V14.2C31.8811 13.52 31.8111 13.03 31.6711 12.73C31.5311 12.43 31.3011 12.28 30.9811 12.28C30.7211 12.28 30.3511 12.39 29.8711 12.61H29.8411C29.7611 12.61 29.7011 12.56 29.6611 12.46C29.6211 12.34 29.6311 12.27 29.6911 12.25L34.2211 10.15L34.3111 10.12C34.4111 10.12 34.5111 10.17 34.6111 10.27C34.7111 10.37 34.7611 10.46 34.7611 10.54V11.2C34.7211 12 34.7011 12.98 34.7011 14.14V19.57C34.7011 20.37 34.8111 20.92 35.0311 21.22C35.2711 21.5 35.7011 21.64 36.3211 21.64C36.3811 21.64 36.4111 21.7 36.4111 21.82C36.4111 21.94 36.3811 22 36.3211 22C35.8011 22 35.3911 21.99 35.0911 21.97L33.2911 21.94L31.5211 21.97C31.2211 21.99 30.8111 22 30.2911 22ZM33.1711 7.15C32.5911 7.15 32.1411 6.99 31.8211 6.67C31.5011 6.35 31.3411 5.9 31.3411 5.32C31.3411 4.8 31.5011 4.39 31.8211 4.09C32.1611 3.77 32.6111 3.61 33.1711 3.61C33.7311 3.61 34.1611 3.76 34.4611 4.06C34.7611 4.36 34.9111 4.78 34.9111 5.32C34.9111 5.9 34.7611 6.35 34.4611 6.67C34.1611 6.99 33.7311 7.15 33.1711 7.15ZM52.272 21.64C52.332 21.64 52.362 21.7 52.362 21.82C52.362 21.94 52.332 22 52.272 22C51.752 22 51.342 21.99 51.042 21.97L49.242 21.94L47.502 21.97C47.182 21.99 46.762 22 46.242 22C46.182 22 46.152 21.94 46.152 21.82C46.152 21.7 46.182 21.64 46.242 21.64C46.862 21.64 47.282 21.5 47.502 21.22C47.722 20.92 47.832 20.37 47.832 19.57V15.25C47.832 14.17 47.632 13.37 47.232 12.85C46.852 12.33 46.242 12.07 45.402 12.07C44.922 12.07 44.422 12.17 43.902 12.37C43.402 12.57 42.962 12.84 42.582 13.18V19.57C42.582 20.37 42.692 20.92 42.912 21.22C43.152 21.5 43.582 21.64 44.202 21.64C44.262 21.64 44.292 21.7 44.292 21.82C44.292 21.94 44.262 22 44.202 22C43.682 22 43.272 21.99 42.972 21.97L41.172 21.94L39.402 21.97C39.102 21.99 38.692 22 38.172 22C38.112 22 38.082 21.94 38.082 21.82C38.082 21.7 38.112 21.64 38.172 21.64C38.792 21.64 39.212 21.5 39.432 21.22C39.652 20.92 39.762 20.37 39.762 19.57V13.93C39.762 13.31 39.682 12.86 39.522 12.58C39.382 12.28 39.152 12.13 38.832 12.13C38.492 12.13 38.012 12.27 37.392 12.55H37.332C37.272 12.55 37.222 12.5 37.182 12.4C37.162 12.3 37.172 12.24 37.212 12.22L41.382 10.18C41.502 10.14 41.572 10.12 41.592 10.12C41.812 10.12 42.022 10.34 42.222 10.78C42.422 11.2 42.542 11.78 42.582 12.52C43.962 10.88 45.482 10.06 47.142 10.06C48.222 10.06 49.072 10.41 49.692 11.11C50.332 11.79 50.652 12.69 50.652 13.81V19.57C50.652 20.37 50.762 20.92 50.982 21.22C51.222 21.5 51.652 21.64 52.272 21.64ZM65.363 20.38C65.443 20.38 65.493 20.43 65.513 20.53C65.553 20.61 65.533 20.67 65.453 20.71L62.363 22.18C62.283 22.22 62.183 22.24 62.063 22.24C61.763 22.24 61.463 22.09 61.163 21.79C60.883 21.49 60.683 21.08 60.563 20.56L59.183 21.31C58.663 21.57 58.123 21.79 57.563 21.97C57.003 22.13 56.503 22.21 56.063 22.21C55.423 22.21 54.913 22.05 54.533 21.73C54.173 21.39 53.993 20.91 53.993 20.29C53.993 19.83 54.103 19.46 54.323 19.18C54.563 18.9 54.893 18.67 55.313 18.49C55.753 18.29 56.443 18.03 57.383 17.71L60.443 16.72V14.35C60.443 13.15 60.323 12.27 60.083 11.71C59.843 11.13 59.453 10.84 58.913 10.84C58.433 10.84 58.053 11.02 57.773 11.38C57.493 11.74 57.323 12.33 57.263 13.15C57.143 14.27 56.553 14.83 55.493 14.83C54.553 14.83 54.083 14.42 54.083 13.6C54.083 13.06 54.423 12.52 55.103 11.98C55.783 11.44 56.603 11 57.563 10.66C58.523 10.32 59.363 10.15 60.083 10.15C61.023 10.15 61.783 10.43 62.363 10.99C62.963 11.55 63.263 12.37 63.263 13.45V18.76C63.263 19.34 63.363 19.79 63.563 20.11C63.783 20.43 64.083 20.59 64.463 20.59C64.743 20.59 65.033 20.52 65.333 20.38H65.363ZM60.473 20.08C60.453 19.94 60.443 19.73 60.443 19.45V17.23L58.793 17.83C58.253 18.03 57.863 18.25 57.623 18.49C57.403 18.73 57.293 19.02 57.293 19.36C57.293 19.78 57.413 20.11 57.653 20.35C57.893 20.59 58.193 20.71 58.553 20.71C58.993 20.71 59.503 20.57 60.083 20.29L60.473 20.08Z" fill="#589195"/>
</svg>
